<svg xmlns="http://www.w3.org/2000/svg" viewBox="0 0 320 320" role="img" aria-label="Bình Táo Store logo">
  <rect width="320" height="320" rx="72" fill="#050505"/>
  <circle cx="160" cy="160" r="108" fill="#ffffff"/>
  <path d="M160 74c12 0 23 3 33 8-8 15-19 26-34 32-8-16-8-29 1-40Z" fill="#050505"/>
  <path d="M160 112c42 0 76 34 76 76 0 29-16 54-40 67-8 4-17 7-27 8v-42h17c15 0 27-12 27-27s-12-27-27-27h-70v96c-10-1-19-4-27-8-24-13-40-38-40-67 0-42 34-76 76-76h35Z" fill="#050505"/>
  <path d="M129 167h51c15 0 27 12 27 27s-12 27-27 27h-51v-54Zm25 22v10h23c3 0 5-2 5-5s-2-5-5-5h-23Z" fill="#ffffff"/>
</svg>
